<?xml version="1.0" encoding="UTF-8"?>
<!DOCTYPE svg PUBLIC "-//W3C//DTD SVG 1.1//EN" "http://www.w3.org/Graphics/SVG/1.1/DTD/svg11.dtd">
<!-- Creator: CorelDRAW 2019 (64-Bit) -->
<svg xmlns="http://www.w3.org/2000/svg" xml:space="preserve" width="29.4948mm" height="30.0646mm" version="1.1" style="shape-rendering:geometricPrecision; text-rendering:geometricPrecision; image-rendering:optimizeQuality; fill-rule:evenodd; clip-rule:evenodd"
viewBox="0 0 853.69 870.18"
 xmlns:xlink="http://www.w3.org/1999/xlink">
 <defs>
  <style type="text/css">
   <![CDATA[
    .str0 {stroke:#373435;stroke-width:5.79;stroke-miterlimit:22.9256}
    .fil0 {fill:#373435}
    .fil1 {fill:#ED3237}
   ]]>
  </style>
 </defs>
 <g id="Capa_x0020_1">
  <metadata id="CorelCorpID_0Corel-Layer"/>
  <path class="fil0" d="M626.43 184.09c133.04,52.14 227.25,181.66 227.25,333.18 0,470.55 -715.45,470.55 -715.45,0 0,-28.41 3.31,-56.05 9.58,-82.55 4.72,-20 7.67,-7.04 30.86,-7.04 69.38,0 102.89,-83.77 55.13,-132.06 -10.87,-10.99 -14.53,-6.19 -2.79,-19.13 3.84,-4.24 8,-8.42 12.35,-12.52 -33.41,-79.59 70.26,-146.11 128.69,-82.38 11.86,-4.38 24.03,-8.15 36.44,-11.27 13.3,-3.34 6.55,1.69 6.55,16.95 0,124.38 185.96,131.44 195.98,8.06 1.59,-19.67 -4.11,-18.89 15.41,-11.24z"/>
  <path class="fil1" d="M275.41 311.53c92.38,0 80.6,78.7 216.22,256.1 110.71,-176.04 126.22,-256.1 215.21,-256.1 0,42.81 0,253.29 0,346.08 0,86.37 -66.58,86.37 -98.98,86.37 0,-218.82 0,-16.49 0,-203.57 0,-31.5 0.77,-24.8 -17.87,-1.35 -85.74,107.82 11.17,-14.05 -98.37,123.71 -116.71,-137.76 -13.44,-15.87 -104.81,-123.72 -21.75,-25.68 -19.03,-28.74 -19.03,5.29 0,180.3 0,-17.62 0,199.64 -33.76,0 -92.38,0 -92.38,-86.37 0,-68.69 0,-277.39 0,-346.08z"/>
  <circle class="fil1 str0" cx="513.13" cy="221.88" r="39.75"/>
  <circle class="fil1 str0" cx="543.1" cy="121.78" r="39.75"/>
  <circle class="fil1 str0" cx="175.02" cy="251.83" r="39.75"/>
  <circle class="fil1 str0" cx="190.26" cy="386.33" r="21.59"/>
  <circle class="fil1 str0" cx="104.41" cy="372.25" r="39.75"/>
  <circle class="fil1 str0" cx="211.78" cy="329.46" r="21.59"/>
  <circle class="fil1 str0" cx="459.17" cy="153.19" r="21.59"/>
  <circle class="fil1 str0" cx="247.21" cy="24.49" r="21.59"/>
  <circle class="fil1 str0" cx="480.77" cy="78.59" r="21.59"/>
  <circle class="fil1 str0" cx="81.25" cy="189.21" r="39.75"/>
  <circle class="fil1 str0" cx="253.41" cy="125.47" r="39.75"/>
  <circle class="fil1 str0" cx="373.75" cy="109.27" r="39.75"/>
  <circle class="fil1 str0" cx="168.75" cy="180.22" r="21.59"/>
  <circle class="fil1 str0" cx="100.42" cy="271.17" r="21.59"/>
  <circle class="fil1 str0" cx="24.49" cy="257.33" r="21.59"/>
  <circle class="fil1 str0" cx="168.67" cy="76.37" r="21.59"/>
  <circle class="fil1 str0" cx="306.68" cy="59.92" r="21.59"/>
  <circle class="fil1 str0" cx="417.95" cy="25.59" r="21.59"/>
 </g>
</svg>
