<?xml version="1.0" encoding="UTF-8"?>
<!DOCTYPE svg PUBLIC "-//W3C//DTD SVG 1.1//EN" "http://www.w3.org/Graphics/SVG/1.1/DTD/svg11.dtd">
<!-- Creator: CorelDRAW 2019 (64-Bit) -->
<svg xmlns="http://www.w3.org/2000/svg" xml:space="preserve" width="139.585mm" height="146.506mm" version="1.1" style="shape-rendering:geometricPrecision; text-rendering:geometricPrecision; image-rendering:optimizeQuality; fill-rule:evenodd; clip-rule:evenodd"
viewBox="0 0 2770.9 2908.29"
 xmlns:xlink="http://www.w3.org/1999/xlink">
 <defs>
  <style type="text/css">
   <![CDATA[
    .str0 {stroke:#373435;stroke-width:3.97;stroke-miterlimit:22.9256}
    .fil0 {fill:#373435}
    .fil1 {fill:#ED3237}
   ]]>
  </style>
 </defs>
 <g id="Capa_x0020_1">
  <metadata id="CorelCorpID_0Corel-Layer"/>
  <g id="_2728511060976">
   <path class="fil0" d="M2009.37 609.17c445.83,174.71 761.54,608.74 761.54,1116.51 0,1576.81 -2397.5,1576.81 -2397.5,0 0,-95.21 11.1,-187.82 32.1,-276.62 15.82,-67.01 25.7,-23.58 103.41,-23.58 232.48,0 344.8,-280.73 184.74,-442.53 -20.56,-20.8 -36.73,-25.4 -33.66,-32.01 83.94,-180.45 653.16,-442.71 646.53,-379.67 -1.02,9.72 -5.53,25.73 -5.53,48.58 0,416.8 623.17,440.45 656.74,27 5.34,-65.92 -13.78,-63.31 51.63,-37.67z"/>
   <path class="fil1" d="M833.06 1036.22c309.56,0 270.09,263.74 724.58,858.19 370.99,-589.93 422.96,-858.2 721.18,-858.19 0,143.45 0,848.79 0,1159.72 0,289.44 -223.12,289.44 -331.67,289.44 0,-733.28 0,-55.28 0,-682.17 0,-105.54 2.59,-83.1 -59.89,-4.51 -287.3,361.31 37.44,-47.08 -329.62,414.54 -391.11,-461.64 -45.06,-53.18 -351.24,-414.59 -72.9,-86.05 -63.77,-96.29 -63.77,17.71 0,604.19 0,-59.06 0,669.02 -113.14,0 -309.56,0 -309.56,-289.44 0,-230.19 0,-929.54 0,-1159.72z"/>
   <circle class="fil1 str0" cx="1629.69" cy="735.82" r="133.21"/>
   <circle class="fil1 str0" cx="1730.1" cy="400.37" r="133.21"/>
   <circle class="fil1 str0" cx="496.65" cy="836.19" r="133.21"/>
   <circle class="fil1 str0" cx="547.74" cy="1286.89" r="72.36"/>
   <circle class="fil1 str0" cx="260.04" cy="1239.69" r="133.21"/>
   <circle class="fil1 str0" cx="619.83" cy="1096.33" r="72.36"/>
   <circle class="fil1 str0" cx="1448.87" cy="505.62" r="72.36"/>
   <circle class="fil1 str0" cx="738.57" cy="74.35" r="72.36"/>
   <circle class="fil1 str0" cx="1521.24" cy="255.65" r="72.36"/>
   <circle class="fil1 str0" cx="428.81" cy="544.23" r="133.21"/>
   <circle class="fil1 str0" cx="841.47" cy="576.97" r="133.21"/>
   <circle class="fil1 str0" cx="1162.63" cy="358.47" r="133.21"/>
   <circle class="fil1 str0" cx="722.02" cy="349.84" r="72.36"/>
   <circle class="fil1 str0" cx="246.66" cy="900.99" r="72.36"/>
   <circle class="fil1 str0" cx="74.35" cy="608.25" r="72.36"/>
   <circle class="fil1 str0" cx="475.38" cy="248.21" r="72.36"/>
   <circle class="fil1 str0" cx="937.88" cy="193.08" r="72.36"/>
   <circle class="fil1 str0" cx="1310.73" cy="78.03" r="72.36"/>
  </g>
 </g>
</svg>
